<?xml version="1.0" encoding="utf-8"?>
<!-- Generator: Adobe Illustrator 21.1.0, SVG Export Plug-In . SVG Version: 6.00 Build 0)  -->
<svg version="1.1" id="Layer_1" xmlns="http://www.w3.org/2000/svg" xmlns:xlink="http://www.w3.org/1999/xlink" x="0px" y="0px"
	 viewBox="0 0 512 512" style="enable-background:new 0 0 512 512;" xml:space="preserve">
<style type="text/css">
	.st0{fill:#CCCCCC;}
	.st1{fill:#CCD1D9;}
</style>
<g>
	<path class="st0" d="M490.7,85.1c-5.9,0-10.7-4.8-10.7-10.7V63.8c0-5.9,4.8-10.7,10.7-10.7s10.7,4.8,10.7,10.7v10.7
		C501.3,80.3,496.6,85.1,490.7,85.1z"/>
	<path class="st0" d="M288,490.7c-5.9,0-10.7-4.8-10.7-10.7v-42.7c0-5.9,4.8-10.7,10.7-10.7s10.7,4.8,10.7,10.7V480
		C298.7,485.9,293.9,490.7,288,490.7z"/>
	<path class="st0" d="M330.7,490.7h-64c-5.9,0-10.7-4.8-10.7-10.7c0-5.9,4.8-10.7,10.7-10.7h64c5.9,0,10.7,4.8,10.7,10.7
		C341.3,485.9,336.6,490.7,330.7,490.7z"/>
	<path class="st1" d="M501.3,85.1h-45.8c-5.9,0-10.7-4.8-10.7-10.7c0-5.9,4.8-10.7,10.7-10.7h45.8c5.9,0,10.7,4.8,10.7,10.7
		C512,80.3,507.2,85.1,501.3,85.1z"/>
	<path class="st0" d="M288,320.3c-23.5,0-42.7,19.2-42.7,42.7c0,11.1,4.2,31,10,47.3c9,25.4,19.6,37.7,32.7,37.7
		s23.7-12.3,32.7-37.7c5.8-16.3,10-36.3,10-47.3C330.7,339.4,311.5,320.3,288,320.3z"/>
	<g>
		<path class="st0" d="M478.3,58.9c1.9-2.9,2.2-6.5,1-9.8c-0.5-1.1-11.5-27.8-47.2-27.8c-3.9,0-8.1,0.3-12.3,1
			c-25.7,4.1-41.6,37.1-60,75.4c-14,29-28.4,59.1-46.9,75.5c-11.9,10.5-47,32.4-147.1,77C105.4,277.1,49.6,299.5,49,299.8
			c-4.1,1.6-6.8,5.6-6.7,10c0.1,4.4,2.8,8.3,7,9.8c96.4,35.7,177.9,53.8,242.2,53.8h0c67.3,0,117.3-19.7,148.7-58.5
			c40.2-49.7,49.2-129.9,26.7-238.4L478.3,58.9z"/>
		<path class="st0" d="M247.8,349.6L98.5,314.4c-2.6-0.6-5.4-0.2-7.7,1.1L5.4,364.1c-4.3,2.4-6.4,7.5-5,12.3
			c1.4,4.6,5.5,7.7,10.2,7.7c0.2,0,0.4,0,0.6,0l234.7-13.3c5.3-0.3,9.6-4.4,10-9.7C256.4,355.6,252.9,350.8,247.8,349.6z"/>
	</g>
	<path class="st0" d="M472.2,238.5c-22.7-60.2-65.3-72.8-97.1-72.8c-41.7,0-80.5,21-90.4,26.7c-0.8,0.2-1.5,0.5-2.2,1
		C208,235.7,50.6,299.1,49,299.8c-4.1,1.6-6.8,5.6-6.7,10c0.1,4.4,2.8,8.3,7,9.8c96.4,35.7,177.9,53.8,242.2,53.8c0,0,0,0,0,0
		c50.7,0,91.8-11.2,122.2-33.3c29.8-21.7,49.6-53.8,58.9-95.5C473.1,242.6,473,240.5,472.2,238.5z"/>
	<path class="st0" d="M437.3,63.8c0,5.9-4.8,10.7-10.7,10.7S416,69.7,416,63.8c0-5.9,4.8-10.7,10.7-10.7
		C432.6,53.1,437.3,57.9,437.3,63.8z"/>
</g>
<path class="st0" d="M139.4,429h-13.3c-3.7,0-6.6,3.1-6.6,6.9v13.7c0,11.3,8.9,20.6,19.9,20.6h13.3c3.7,0,6.6-3.1,6.6-6.9v-13.7
	C159.3,438.2,150.4,429,139.4,429z"/>
<path class="st0" d="M167.1,449.9h-54.9c-11.3,0-20.6,9.2-20.6,20.6c0,11.4,9.2,20.6,20.6,20.6h54.9c11.3,0,20.6-9.2,20.6-20.6
	C187.7,459.1,178.4,449.9,167.1,449.9z"/>
</svg>
