<?xml version="1.0" encoding="utf-8"?>
<!-- Generator: Adobe Illustrator 21.1.0, SVG Export Plug-In . SVG Version: 6.00 Build 0)  -->
<svg version="1.1" id="Capa_1" xmlns="http://www.w3.org/2000/svg" xmlns:xlink="http://www.w3.org/1999/xlink" x="0px" y="0px"
	 viewBox="0 0 20 20" style="enable-background:new 0 0 20 20;" xml:space="preserve">
<style type="text/css">
	.st0{fill:#CCCCCC;}
</style>
<g>
	<path class="st0" d="M14.9,4.6l0.6-0.7c0.8-1,0.6-2.5-0.4-3.3l0,0c-1-0.8-2.5-0.6-3.3,0.4l-0.6,0.7L14.9,4.6z"/>
	<path class="st0" d="M11.3,10.7c0,0.2,0.1,0.3,0.3,0.5c0.3,0.2,0.7,0.2,1-0.1l4-5c0.2-0.3,0.2-0.8-0.1-1c-0.3-0.2-0.7-0.2-1,0.1
		l-0.4,0.5l-0.7-0.5l0,0l-3.7-2.9L1.3,13.9L5,16.9l8.5-10.7l0.7,0.5l-2.8,3.4C11.3,10.4,11.3,10.6,11.3,10.7z"/>
	<path class="st0" d="M4.4,17.4L1,14.7C0.9,14.8,0.9,15,0.9,15l-0.8,3.8c-0.1,0.3,0.2,0.5,0.5,0.4l3.5-1.6
		C4.1,17.6,4.2,17.5,4.4,17.4z"/>
	<path class="st0" d="M19.4,18.1C19.4,18.1,19.4,18.1,19.4,18.1L14,18.8c-0.3,0-0.5-0.3-0.3-0.5c0.1-0.1,0.2-0.3,0.2-0.4
		c0.2-0.3-0.1-0.8-0.5-0.8c0,0-0.1,0-0.1,0l-7,1.1l-0.8,0.1l-2.3,0.3c-0.3,0-0.4,0.3-0.4,0.5c0,0.1,0.1,0.2,0.1,0.3
		c0.1,0.1,0.2,0.2,0.3,0.2c0,0,0.1,0,0.1,0l8.3-1.3c0.3,0,0.5,0.3,0.3,0.5C12,19,12,19.1,11.9,19.1c-0.2,0.2-0.1,0.5,0.1,0.7
		c0.1,0.1,0.2,0.1,0.3,0.1c0,0,0,0,0,0h0h0l7.2-0.9h0h0c0.1,0,0.2-0.1,0.3-0.2c0.1-0.1,0.1-0.3,0.1-0.4
		C19.9,18.3,19.7,18.1,19.4,18.1z"/>
</g>
</svg>
