<?xml version="1.0" encoding="utf-8"?>
<!-- Generator: Adobe Illustrator 21.1.0, SVG Export Plug-In . SVG Version: 6.00 Build 0)  -->
<svg version="1.1" id="Layer_1" xmlns="http://www.w3.org/2000/svg" xmlns:xlink="http://www.w3.org/1999/xlink" x="0px" y="0px"
	 viewBox="0 0 45 45" style="enable-background:new 0 0 45 45;" xml:space="preserve">
<style type="text/css">
	.st0{fill:#02AEB3;}
	.st1{fill:#F2F2F2;stroke:#F2F2F2;stroke-width:0.5;stroke-miterlimit:10;}
	.st2{fill:#F2F2F2;}
</style>
<circle class="st0" cx="22.3" cy="22.9" r="20"/>
<g>
	<g>
		<g>
			<path class="st1" d="M35,12.9c-0.1-0.5-0.6-0.6-1-0.5c-0.3,0.1-0.4,0.5-0.4,0.5l0.2-0.3c0.1-0.2,0.1-0.4,0.1-0.5
				c0-0.1-0.6-1.4-2.5-1.4c-0.2,0-0.4,0-0.6,0.1c-1.3,0.2-2.1,2-3.1,3.9c-0.7,1.5-1.5,3.1-2.4,3.9c-0.6,0.5-2.5,1.7-7.6,4
				c-3.1,1.4-6,2.6-6,2.6c-0.2,0.1-0.4,0.3-0.4,0.5c0,0.3,0.2,0.4,0.4,0.5c0.4,0.2,0.7,0.3,1.1,0.4l-3.4,2C9,28.6,8.9,28.9,9,29.2
				c0.1,0.3,0.3,0.4,0.5,0.4l0,0l12.2-0.7l0,0c0.1,0.6,0.3,1.4,0.5,2c0.4,1,0.7,1.5,1.2,1.8v1.2h-0.5c-0.3,0-0.5,0.3-0.5,0.5
				s0.3,0.5,0.5,0.5h3.4c0.3,0,0.5-0.3,0.5-0.5s-0.3-0.5-0.5-0.5h-1.7v-1.2c0.4-0.3,0.8-0.9,1.2-1.8c0.3-0.7,0.4-1.4,0.5-2
				c2.5-0.4,4.4-1.3,5.7-2.9c0.8-1,1.3-2.2,1.7-3.6v-0.1c0.4-2.2,0.4-5-0.2-8.3h1.7c0.3,0,0.5-0.3,0.5-0.5
				C35.6,13.2,35.3,12.9,35,12.9z M11.8,28.3L14,27c1.1,0.4,2.1,0.7,3.2,0.9L11.8,28.3z M24.6,30.4c-0.3,0.9-0.6,1.2-0.7,1.3
				c-0.1-0.1-0.4-0.4-0.7-1.3c-0.2-0.5-0.3-1.1-0.4-1.4c0.4,0,0.8,0,1.2,0l0,0c0.3,0,0.6,0,0.9,0C24.9,29.4,24.8,29.9,24.6,30.4z
				 M30.9,25.2c-0.7,0.9-1.6,1.5-2.7,2c-1.2,0.4-2.6,0.7-4.2,0.7l0,0c-2.9,0-6.6-0.7-10.8-2.2c2.5-1.1,7.7-3.3,10.8-5
				c0.1,0,0.1,0,0.2-0.1c0,0,3.1-2,5.7-1.1c1.2,0.4,2,1.3,2.6,2.7C32.1,23.4,31.7,24.4,30.9,25.2z M32.7,20.4c-0.6-1-1.5-1.6-2.5-2
				c-1.2-0.4-2.3-0.4-3.3-0.1c0.7-1,1.2-2.1,1.8-3.2c0.7-1.5,1.5-3.2,2.3-3.3c0.2,0,0.4,0,0.4,0c0.7,0,1.1,0.3,1.2,0.5l-0.5,0.8l0,0
				l0,0l0,0l0,0l0,0l0,0l0,0l0,0l0,0l0,0l0,0l0,0l0,0l0,0l0,0l0,0l0,0l0,0C32.6,16.2,32.9,18.5,32.7,20.4z"/>
		</g>
	</g>
	<path class="st2" d="M16.4,31.2h-0.8c-0.3,0-0.4,0.2-0.4,0.4v0.8c0,0.7,0.5,1.2,1.2,1.2h0.8c0.3,0,0.4-0.2,0.4-0.4v-0.8
		C17.6,31.8,17.1,31.2,16.4,31.2z"/>
	<path class="st2" d="M18.1,32.6h-3.4c-0.7,0-1.2,0.5-1.2,1.2c0,0.7,0.5,1.2,1.2,1.2h3.4c0.7,0,1.2-0.5,1.2-1.2
		C19.4,33.2,18.8,32.6,18.1,32.6z"/>
</g>
</svg>
