<?xml version="1.0"?>
<svg xmlns="http://www.w3.org/2000/svg" xmlns:xlink="http://www.w3.org/1999/xlink" version="1.1" id="Layer_1" x="0px" y="0px" viewBox="0 0 511.978 511.978" style="enable-background:new 0 0 511.978 511.978;" xml:space="preserve" width="512px" height="512px" class=""><g><path style="fill:#CCCCCC" d="M415.983,277.336h-21.328c-5.891,0-10.672,4.766-10.672,10.655v21.344  c0,17.623,14.359,31.997,32,31.997h21.343c5.89,0,10.655-4.78,10.655-10.687v-21.311  C447.981,291.678,433.638,277.336,415.983,277.336z" data-original="#7F4545" class="" data-old_color="#cccccc"/><path style="fill:#CCCCCC" d="M458.653,319.99h-85.325c-17.64,0-31.999,14.343-31.999,31.998c0,17.656,14.359,31.999,31.999,31.999  h85.325c17.64,0,31.998-14.343,31.998-31.999C490.651,334.333,476.293,319.99,458.653,319.99z" data-original="#965353" class="" data-old_color="#cccccc"/><path style="fill:#CCCCCC" d="M245.333,85.336H10.671C4.781,85.336,0,90.108,0,95.999v319.987c0,5.891,4.781,10.656,10.671,10.656  h234.663c5.891,0,10.656-4.766,10.656-10.656V95.999C255.989,90.108,251.224,85.336,245.333,85.336z" data-original="#E6E9ED" class="active-path" data-old_color="#cccccc"/><rect y="117.339" style="fill:#ED5564;" width="255.99" height="21.327" data-original="#ED5564" class=""/><path style="fill:#CCD1D9;" d="M212.475,405.33H41.81c-5.89,0-10.656-4.78-10.656-10.687c0-5.875,4.766-10.656,10.656-10.656  h170.665c5.891,0,10.672,4.781,10.672,10.656C223.147,400.55,218.366,405.33,212.475,405.33z" data-original="#CCD1D9" class=""/><path style="fill:#CCCCCC" d="M479.98,362.644H352.001c-17.656,0-31.998,14.374-31.998,31.999  c0,17.655,14.342,31.999,31.998,31.999H479.98c17.654,0,31.998-14.344,31.998-31.999  C511.978,377.018,497.635,362.644,479.98,362.644z" data-original="#A85D5D" class="" data-old_color="#cccccc"/><g>
	<path style="fill:#ED5564;" d="M127.151,309.335c-17.656,0-31.999-14.375-31.999-31.999c0-17.655,14.343-32.007,31.999-32.007   c17.64,0,31.999,14.352,31.999,32.007C159.149,294.96,144.791,309.335,127.151,309.335z" data-original="#ED5564" class=""/>
	<path style="fill:#ED5564;" d="M137.806,223.994c0,5.891-4.765,10.663-10.656,10.663c-5.89,0-10.671-4.772-10.671-10.663   c0-5.89,4.781-10.663,10.671-10.663C133.041,213.331,137.806,218.104,137.806,223.994z" data-original="#ED5564" class=""/>
	<path style="fill:#ED5564;" d="M104.511,228.947c4.171,4.171,4.171,10.921,0,15.085c-4.156,4.172-10.921,4.172-15.078,0   c-4.172-4.164-4.172-10.914,0-15.085C93.59,224.783,100.355,224.783,104.511,228.947z" data-original="#ED5564" class=""/>
	<path style="fill:#ED5564;" d="M149.775,228.947c4.171-4.164,10.921-4.164,15.093,0c4.156,4.171,4.156,10.921,0,15.085   c-4.172,4.172-10.922,4.172-15.093,0C145.619,239.868,145.619,233.118,149.775,228.947z" data-original="#ED5564" class=""/>
</g><path style="fill:#CCCCCC" d="M423.53,195.121c-5.391-5.391-7-11.016-5.094-17.695c1.688-5.914,5.484-10.296,5.531-10.343  l-0.062,0.062l-0.016-0.023c1.718-1.898,2.765-4.398,2.765-7.156c0-5.891-4.765-10.672-10.671-10.672  c-3.406,0-6.438,1.617-8.391,4.117c-1.656,1.953-6.625,8.336-9.375,17.163c-4.5,14.461-0.859,28.538,10.234,39.632  c5.391,5.391,7,11.015,5.094,17.694c-1.688,5.905-5.484,10.296-5.531,10.335l0.062-0.055v0.008c-1.703,1.891-2.75,4.391-2.75,7.141  c0,5.891,4.781,10.664,10.656,10.664c3.156,0,5.969-1.367,7.922-3.531v0.008c0.688-0.75,6.718-7.633,9.858-17.719  C438.263,220.291,434.623,206.214,423.53,195.121z" data-original="#E6E9ED" class="active-path" data-old_color="#cccccc"/></g> </svg>
